<mxfile host="app.diagrams.net" modified="2021-08-12T03:42:00.322Z" agent="5.0 (Windows NT 10.0; Win64; x64) AppleWebKit/537.36 (KHTML, like Gecko) Chrome/92.0.4515.131 Safari/537.36" etag="ox6rITV7DTXzPVdlffA6" version="14.9.6" type="github">
  <diagram id="P5vvauywJQr7UctGE28Q" name="第 1 页">
    <mxGraphModel dx="810" dy="435" grid="1" gridSize="10" guides="1" tooltips="1" connect="1" arrows="1" fold="1" page="1" pageScale="1" pageWidth="827" pageHeight="1169" math="0" shadow="0">
      <root>
        <mxCell id="0" />
        <mxCell id="1" parent="0" />
        <mxCell id="CsEDw-_Nd-4ZD7dhoMD--1" value="客服" style="shape=umlActor;verticalLabelPosition=bottom;verticalAlign=top;html=1;outlineConnect=0;" vertex="1" parent="1">
          <mxGeometry x="150" y="210" width="30" height="60" as="geometry" />
        </mxCell>
        <mxCell id="CsEDw-_Nd-4ZD7dhoMD--5" value="CRM" style="shape=umlFrame;whiteSpace=wrap;html=1;" vertex="1" parent="1">
          <mxGeometry x="280" y="110" width="300" height="260" as="geometry" />
        </mxCell>
        <mxCell id="CsEDw-_Nd-4ZD7dhoMD--6" value="WishApi" style="ellipse;shape=cloud;whiteSpace=wrap;html=1;align=center;" vertex="1" parent="1">
          <mxGeometry x="690" y="210" width="100" height="60" as="geometry" />
        </mxCell>
        <mxCell id="CsEDw-_Nd-4ZD7dhoMD--7" value="同步Ticket" style="ellipse;whiteSpace=wrap;html=1;" vertex="1" parent="1">
          <mxGeometry x="360" y="150" width="140" height="40" as="geometry" />
        </mxCell>
        <mxCell id="CsEDw-_Nd-4ZD7dhoMD--10" value="查看Ticket" style="ellipse;whiteSpace=wrap;html=1;" vertex="1" parent="1">
          <mxGeometry x="360" y="230" width="140" height="40" as="geometry" />
        </mxCell>
        <mxCell id="CsEDw-_Nd-4ZD7dhoMD--11" value="回复Ticket" style="ellipse;whiteSpace=wrap;html=1;" vertex="1" parent="1">
          <mxGeometry x="360" y="310" width="140" height="40" as="geometry" />
        </mxCell>
        <mxCell id="CsEDw-_Nd-4ZD7dhoMD--19" value="" style="endArrow=classic;html=1;entryX=-0.01;entryY=0.632;entryDx=0;entryDy=0;entryPerimeter=0;" edge="1" parent="1" target="CsEDw-_Nd-4ZD7dhoMD--7">
          <mxGeometry width="50" height="50" relative="1" as="geometry">
            <mxPoint x="190" y="250" as="sourcePoint" />
            <mxPoint x="250" y="190" as="targetPoint" />
          </mxGeometry>
        </mxCell>
        <mxCell id="CsEDw-_Nd-4ZD7dhoMD--23" value="&lt;font face=&quot;consolas, lucida console, courier new, monospace&quot;&gt;&lt;span style=&quot;font-size: 11px&quot;&gt;/GetList&lt;/span&gt;&lt;/font&gt;" style="edgeLabel;html=1;align=center;verticalAlign=middle;resizable=0;points=[];" vertex="1" connectable="0" parent="CsEDw-_Nd-4ZD7dhoMD--19">
          <mxGeometry x="0.2308" y="1" relative="1" as="geometry">
            <mxPoint as="offset" />
          </mxGeometry>
        </mxCell>
        <mxCell id="CsEDw-_Nd-4ZD7dhoMD--20" value="" style="endArrow=classic;html=1;entryX=0;entryY=0.5;entryDx=0;entryDy=0;" edge="1" parent="1" target="CsEDw-_Nd-4ZD7dhoMD--10">
          <mxGeometry width="50" height="50" relative="1" as="geometry">
            <mxPoint x="190" y="250" as="sourcePoint" />
            <mxPoint x="368.5999999999999" y="185.27999999999997" as="targetPoint" />
          </mxGeometry>
        </mxCell>
        <mxCell id="CsEDw-_Nd-4ZD7dhoMD--24" value="/GetTicketById" style="edgeLabel;html=1;align=center;verticalAlign=middle;resizable=0;points=[];" vertex="1" connectable="0" parent="CsEDw-_Nd-4ZD7dhoMD--20">
          <mxGeometry x="-0.1933" y="1" relative="1" as="geometry">
            <mxPoint x="31" y="1" as="offset" />
          </mxGeometry>
        </mxCell>
        <mxCell id="CsEDw-_Nd-4ZD7dhoMD--21" value="" style="endArrow=classic;html=1;entryX=0;entryY=0.5;entryDx=0;entryDy=0;" edge="1" parent="1" target="CsEDw-_Nd-4ZD7dhoMD--11">
          <mxGeometry width="50" height="50" relative="1" as="geometry">
            <mxPoint x="190" y="250" as="sourcePoint" />
            <mxPoint x="370" y="260" as="targetPoint" />
          </mxGeometry>
        </mxCell>
        <mxCell id="CsEDw-_Nd-4ZD7dhoMD--25" value="&lt;div style=&quot;text-align: left&quot;&gt;&lt;font face=&quot;consolas, lucida console, courier new, monospace&quot;&gt;&lt;span style=&quot;font-size: 11px&quot;&gt;/ReplyTicket&lt;/span&gt;&lt;/font&gt;&lt;br&gt;&lt;/div&gt;" style="edgeLabel;html=1;align=center;verticalAlign=middle;resizable=0;points=[];" vertex="1" connectable="0" parent="CsEDw-_Nd-4ZD7dhoMD--21">
          <mxGeometry x="-0.1443" y="2" relative="1" as="geometry">
            <mxPoint x="36" y="18" as="offset" />
          </mxGeometry>
        </mxCell>
        <mxCell id="CsEDw-_Nd-4ZD7dhoMD--26" value="" style="endArrow=classic;startArrow=classic;html=1;exitX=1;exitY=0.5;exitDx=0;exitDy=0;" edge="1" parent="1" source="CsEDw-_Nd-4ZD7dhoMD--7">
          <mxGeometry width="50" height="50" relative="1" as="geometry">
            <mxPoint x="500" y="220" as="sourcePoint" />
            <mxPoint x="680" y="220" as="targetPoint" />
          </mxGeometry>
        </mxCell>
        <mxCell id="CsEDw-_Nd-4ZD7dhoMD--29" value="&lt;span style=&quot;color: rgb(51 , 51 , 51) ; font-family: &amp;#34;helvetica neue&amp;#34; , &amp;#34;helvetica&amp;#34; , &amp;#34;arial&amp;#34; , sans-serif ; font-size: 8px&quot;&gt;/api/v2/ticket/get-action-required&lt;/span&gt;" style="edgeLabel;html=1;align=center;verticalAlign=middle;resizable=0;points=[];" vertex="1" connectable="0" parent="CsEDw-_Nd-4ZD7dhoMD--26">
          <mxGeometry x="-0.2074" y="1" relative="1" as="geometry">
            <mxPoint x="28" y="1" as="offset" />
          </mxGeometry>
        </mxCell>
        <mxCell id="CsEDw-_Nd-4ZD7dhoMD--27" value="" style="endArrow=classic;startArrow=classic;html=1;exitX=1;exitY=0.5;exitDx=0;exitDy=0;" edge="1" parent="1" source="CsEDw-_Nd-4ZD7dhoMD--10">
          <mxGeometry width="50" height="50" relative="1" as="geometry">
            <mxPoint x="510" y="180" as="sourcePoint" />
            <mxPoint x="680" y="250" as="targetPoint" />
          </mxGeometry>
        </mxCell>
        <mxCell id="CsEDw-_Nd-4ZD7dhoMD--30" value="&lt;span style=&quot;color: rgb(51 , 51 , 51) ; font-family: &amp;#34;helvetica neue&amp;#34; , &amp;#34;helvetica&amp;#34; , &amp;#34;arial&amp;#34; , sans-serif&quot;&gt;&lt;font style=&quot;font-size: 8px&quot;&gt;/api/v2/ticket&lt;/font&gt;&lt;/span&gt;" style="edgeLabel;html=1;align=center;verticalAlign=middle;resizable=0;points=[];" vertex="1" connectable="0" parent="CsEDw-_Nd-4ZD7dhoMD--27">
          <mxGeometry x="-0.2794" relative="1" as="geometry">
            <mxPoint x="15" as="offset" />
          </mxGeometry>
        </mxCell>
        <mxCell id="CsEDw-_Nd-4ZD7dhoMD--28" value="" style="endArrow=classic;startArrow=classic;html=1;exitX=1;exitY=0.5;exitDx=0;exitDy=0;" edge="1" parent="1">
          <mxGeometry width="50" height="50" relative="1" as="geometry">
            <mxPoint x="500" y="330" as="sourcePoint" />
            <mxPoint x="680" y="270" as="targetPoint" />
          </mxGeometry>
        </mxCell>
        <mxCell id="CsEDw-_Nd-4ZD7dhoMD--31" value="&lt;span style=&quot;color: rgb(51 , 51 , 51) ; font-family: &amp;#34;helvetica neue&amp;#34; , &amp;#34;helvetica&amp;#34; , &amp;#34;arial&amp;#34; , sans-serif&quot;&gt;&lt;font style=&quot;font-size: 8px&quot;&gt;/api/v2/ticket/reply&lt;/font&gt;&lt;/span&gt;" style="edgeLabel;html=1;align=center;verticalAlign=middle;resizable=0;points=[];" vertex="1" connectable="0" parent="CsEDw-_Nd-4ZD7dhoMD--28">
          <mxGeometry x="0.13" y="-1" relative="1" as="geometry">
            <mxPoint x="-12" y="3" as="offset" />
          </mxGeometry>
        </mxCell>
      </root>
    </mxGraphModel>
  </diagram>
</mxfile>
